<?xml version="1.0" encoding="UTF-8"?>
<svg id="Layer_2" data-name="Layer 2" xmlns="http://www.w3.org/2000/svg" viewBox="0 0 404.7 300.61">
  <defs>
    <style>
      .cls-1, .cls-2 {
        fill-rule: evenodd;
      }

      .cls-1, .cls-3 {
        fill: #ffd215;
      }

      .cls-4, .cls-2 {
        fill: #fff;
      }
    </style>
  </defs>
  <g id="Layer_1-2" data-name="Layer 1">
    <path class="cls-4" d="M46.19,212.57c-1.44-2.52-3.38-4.43-5.87-5.75-2.49-1.32-5.38-1.97-8.7-1.97-3.69,0-6.94.8-9.77,2.4-2.86,1.6-5.07,3.9-6.67,6.88-1.6,2.98-2.4,6.39-2.4,10.29s.83,7.5,2.46,10.48c1.63,2.98,3.87,5.29,6.79,6.88,2.89,1.6,6.27,2.4,10.11,2.4,4.73,0,8.6-1.2,11.65-3.66,3.01-2.43,4.98-5.81,5.93-10.17h-21.3v-9.19h33.56v10.48c-.83,4.18-2.61,8.05-5.32,11.58-2.73,3.56-6.24,6.42-10.54,8.57-4.3,2.15-9.1,3.23-14.41,3.23-5.99,0-11.4-1.32-16.23-3.93-4.82-2.61-8.6-6.21-11.37-10.85-2.73-4.64-4.12-9.93-4.12-15.83s1.38-11.19,4.12-15.86c2.77-4.67,6.55-8.3,11.37-10.91,4.82-2.61,10.2-3.9,16.13-3.9,6.98,0,13.03,1.66,18.19,4.95,5.16,3.29,8.7,7.93,10.66,13.86h-14.29ZM106.14,254.51l-13.67-23.38h-5.84v23.38h-12.45v-59.98h23.26c4.79,0,8.88.83,12.26,2.46,3.38,1.63,5.9,3.84,7.59,6.61,1.69,2.8,2.52,5.9,2.52,9.34,0,3.93-1.17,7.5-3.53,10.69-2.37,3.17-5.9,5.35-10.57,6.58l14.84,24.31h-14.41ZM86.63,222.12h10.39c3.38,0,5.87-.8,7.53-2.37,1.66-1.57,2.49-3.78,2.49-6.58s-.83-4.89-2.49-6.39c-1.66-1.54-4.15-2.27-7.53-2.27h-10.39v17.61ZM172.08,243.08h-24.68l-4.09,11.43h-13.06l22.28-60.08h14.47l22.28,60.08h-13.12l-4.09-11.43ZM168.7,233.46l-8.97-25.11-8.97,25.11h17.95ZM169.41,182.08l-20.4,9v-8.57l20.4-10.23v9.8ZM238.89,194.53v9.71h-25.84v15.4h19.82v9.53h-19.82v25.35h-12.41v-59.98h38.26ZM263.1,194.53v59.98h-12.45v-59.98h12.45ZM275.3,224.43c0-5.9,1.38-11.19,4.12-15.86,2.77-4.67,6.51-8.3,11.28-10.91,4.76-2.61,10.11-3.9,16.04-3.9,6.91,0,13,1.72,18.19,5.16,5.22,3.44,8.85,8.17,10.94,14.26h-14.32c-1.41-2.86-3.41-5.01-5.99-6.45-2.55-1.41-5.53-2.15-8.91-2.15-3.63,0-6.82.83-9.65,2.46-2.8,1.63-4.98,3.93-6.55,6.91-1.57,2.98-2.37,6.48-2.37,10.48s.8,7.44,2.37,10.45c1.57,3.01,3.75,5.32,6.55,6.94,2.83,1.63,6.02,2.46,9.65,2.46,3.38,0,6.36-.74,8.91-2.18,2.58-1.48,4.58-3.63,5.99-6.48h14.32c-2.09,6.12-5.72,10.88-10.88,14.29-5.19,3.41-11.28,5.13-18.25,5.13-5.93,0-11.28-1.32-16.04-3.93-4.76-2.61-8.51-6.21-11.28-10.85-2.73-4.64-4.12-9.93-4.12-15.83h0ZM387.5,243.08h-24.68l-4.09,11.43h-13.06l22.28-60.08h14.47l22.28,60.08h-13.12l-4.09-11.43ZM384.11,233.46l-8.97-25.11-8.97,25.11h17.95Z"/>
    <path class="cls-3" d="M90.28,276.05c-.83-1.44-1.94-2.55-3.38-3.29-1.41-.77-3.1-1.14-5.01-1.14-2.09,0-3.96.46-5.59,1.38-1.63.92-2.92,2.21-3.84,3.93-.92,1.72-1.38,3.69-1.38,5.93s.49,4.3,1.41,6.02c.95,1.72,2.24,3.01,3.9,3.93,1.66.92,3.6,1.38,5.81,1.38,2.73,0,4.95-.68,6.7-2.09,1.72-1.38,2.86-3.35,3.41-5.84h-12.23v-5.29h19.27v6.02c-.46,2.4-1.51,4.61-3.04,6.67-1.57,2.03-3.6,3.66-6.05,4.89-2.46,1.26-5.22,1.87-8.3,1.87-3.44,0-6.55-.77-9.31-2.24-2.77-1.51-4.95-3.6-6.51-6.27-1.6-2.64-2.4-5.68-2.4-9.07s.8-6.42,2.4-9.1c1.57-2.7,3.75-4.79,6.51-6.27,2.77-1.51,5.87-2.27,9.25-2.27,4.03,0,7.5.95,10.48,2.86,2.95,1.87,4.98,4.55,6.12,7.96h-8.2ZM114.04,277.04c.89-1.44,2.09-2.58,3.6-3.38,1.47-.83,3.17-1.26,5.07-1.26v7.25h-1.91c-2.24,0-3.93.52-5.07,1.54-1.14,1.01-1.69,2.8-1.69,5.35v13.61h-7.16v-27.35h7.16v4.24ZM127.86,286.38c0-2.77.58-5.22,1.72-7.34,1.14-2.15,2.67-3.81,4.64-4.95,1.97-1.14,4.15-1.72,6.55-1.72,2.12,0,3.96.4,5.56,1.23,1.57.83,2.83,1.84,3.78,3.1v-3.9h7.19v27.35h-7.19v-3.99c-.92,1.29-2.18,2.34-3.78,3.2-1.63.83-3.5,1.26-5.59,1.26-2.4,0-4.55-.61-6.51-1.78-1.97-1.2-3.5-2.86-4.64-5.01-1.14-2.15-1.72-4.64-1.72-7.44h0ZM150.11,286.47c0-1.66-.34-3.1-1.01-4.3-.68-1.2-1.6-2.12-2.77-2.77-1.14-.65-2.4-.98-3.72-.98s-2.55.34-3.66.95c-1.14.61-2.03,1.54-2.73,2.73-.71,1.2-1.04,2.61-1.04,4.27s.34,3.07,1.04,4.3c.71,1.26,1.6,2.18,2.73,2.86,1.17.65,2.37.98,3.66.98s2.58-.31,3.72-.95c1.17-.65,2.09-1.57,2.77-2.77.68-1.2,1.01-2.64,1.01-4.33h0ZM201.61,272.4c3.47,0,6.27,1.04,8.39,3.1,2.12,2.06,3.2,4.92,3.2,8.6v16.04h-7.13v-15.09c0-2.15-.58-3.78-1.69-4.92-1.14-1.14-2.64-1.72-4.61-1.72s-3.47.58-4.61,1.72c-1.14,1.14-1.69,2.77-1.69,4.92v15.09h-7.16v-15.09c0-2.15-.55-3.78-1.69-4.92-1.11-1.14-2.64-1.72-4.58-1.72s-3.53.58-4.67,1.72c-1.14,1.14-1.72,2.77-1.72,4.92v15.09h-7.13v-27.35h7.13v3.32c.92-1.17,2.12-2.06,3.56-2.73,1.44-.65,3.04-.98,4.76-.98,2.21,0,4.18.46,5.93,1.38,1.72.89,3.07,2.18,4.03,3.87.92-1.6,2.24-2.86,3.99-3.81,1.75-.95,3.66-1.44,5.68-1.44h0ZM220.36,286.38c0-2.77.58-5.22,1.72-7.34,1.14-2.15,2.67-3.81,4.64-4.95,1.97-1.14,4.15-1.72,6.55-1.72,2.12,0,3.96.4,5.56,1.23,1.57.83,2.83,1.84,3.78,3.1v-3.9h7.19v27.35h-7.19v-3.99c-.92,1.29-2.18,2.34-3.78,3.2-1.63.83-3.5,1.26-5.59,1.26-2.4,0-4.55-.61-6.51-1.78-1.97-1.2-3.5-2.86-4.64-5.01-1.14-2.15-1.72-4.64-1.72-7.44h0ZM242.61,286.47c0-1.66-.34-3.1-1.01-4.3-.68-1.2-1.6-2.12-2.77-2.77-1.14-.65-2.4-.98-3.72-.98s-2.55.34-3.66.95c-1.14.61-2.03,1.54-2.73,2.73-.71,1.2-1.04,2.61-1.04,4.27s.34,3.07,1.04,4.3c.71,1.26,1.6,2.18,2.73,2.86,1.17.65,2.37.98,3.66.98s2.58-.31,3.72-.95c1.17-.65,2.09-1.57,2.77-2.77.68-1.2,1.01-2.64,1.01-4.33h0ZM294.11,272.4c3.47,0,6.27,1.04,8.39,3.1,2.12,2.06,3.2,4.92,3.2,8.6v16.04h-7.13v-15.09c0-2.15-.58-3.78-1.69-4.92-1.14-1.14-2.67-1.72-4.61-1.72s-3.47.58-4.61,1.72c-1.14,1.14-1.69,2.77-1.69,4.92v15.09h-7.16v-15.09c0-2.15-.55-3.78-1.69-4.92-1.11-1.14-2.64-1.72-4.58-1.72s-3.53.58-4.67,1.72c-1.14,1.14-1.72,2.77-1.72,4.92v15.09h-7.13v-27.35h7.13v3.32c.92-1.17,2.12-2.06,3.56-2.73,1.44-.65,3.04-.98,4.76-.98,2.21,0,4.18.46,5.93,1.38,1.72.89,3.07,2.18,4.03,3.87.92-1.6,2.24-2.86,3.99-3.81,1.75-.95,3.66-1.44,5.68-1.44h0ZM340.97,285.89c0,.98-.06,1.87-.22,2.67h-20.65c.18,1.97.89,3.5,2.15,4.64,1.26,1.11,2.8,1.66,4.64,1.66,2.64,0,4.55-1.11,5.65-3.29h7.71c-.83,2.61-2.4,4.79-4.7,6.48-2.3,1.69-5.16,2.55-8.51,2.55-2.73,0-5.16-.58-7.31-1.75-2.18-1.17-3.84-2.83-5.07-4.98-1.2-2.15-1.81-4.61-1.81-7.41s.61-5.32,1.78-7.44c1.2-2.15,2.86-3.81,5.01-4.95,2.15-1.14,4.61-1.72,7.41-1.72s5.1.55,7.22,1.66c2.12,1.14,3.78,2.7,4.95,4.76,1.17,2.06,1.75,4.43,1.75,7.1h0ZM333.57,283.92c-.03-1.78-.68-3.23-1.97-4.27-1.29-1.08-2.89-1.63-4.76-1.63-1.75,0-3.26.52-4.46,1.57-1.2,1.04-1.94,2.49-2.21,4.33h13.4Z"/>
    <g>
      <polygon class="cls-1" points="123.58 0 281.12 0 281.12 53.55 262.31 53.55 262.31 18.81 142.39 18.81 142.39 138.79 262.31 138.79 262.31 104.53 281.12 104.53 281.12 157.6 123.58 157.6 123.58 0"/>
      <polygon class="cls-2" points="177.13 54.33 177.13 103.27 226.07 103.27 226.07 88.35 190.49 88.35 190.49 69.31 281.12 69.31 281.12 88.35 246.5 88.35 246.5 123.76 156.65 123.76 156.65 33.9 246.5 33.9 246.5 54.33 177.13 54.33"/>
    </g>
  </g>
</svg>